<?xml version="1.0" standalone="no"?>
<!DOCTYPE svg PUBLIC "-//W3C//DTD SVG 20010904//EN"
 "http://www.w3.org/TR/2001/REC-SVG-20010904/DTD/svg10.dtd">
<svg version="1.0" xmlns="http://www.w3.org/2000/svg"
 width="256.000000pt" height="256.000000pt" viewBox="0 0 256.000000 256.000000"
 preserveAspectRatio="xMidYMid meet">
<metadata>
Created by potrace 1.16, written by Peter Selinger 2001-2019
</metadata>
<g transform="translate(0.000000,256.000000) scale(0.100000,-0.100000)"
fill="#000000" stroke="none">
<path d="M812 1647 c-478 -478 -552 -556 -552 -582 0 -23 19 -48 103 -132 84
-84 109 -103 132 -103 25 0 90 61 467 437 l438 438 320 -320 320 -320 0 -397
c0 -295 -3 -398 -12 -398 -23 0 -77 -51 -94 -90 l-18 -40 -118 0 -118 0 0 428
c0 320 -3 431 -12 440 -17 17 -519 17 -536 0 -9 -9 -12 -120 -12 -440 l0 -428
-180 0 -180 0 0 288 c0 211 -3 291 -12 300 -16 16 -80 16 -96 0 -8 -8 -12 -45
-12 -100 l0 -87 -49 -21 c-60 -26 -103 -70 -131 -132 -17 -39 -29 -51 -68 -68
-62 -28 -106 -71 -132 -131 l-21 -49 -97 0 c-63 0 -102 -4 -110 -12 -16 -16
-16 -80 0 -96 18 -18 1981 -17 1995 1 6 6 13 29 16 50 8 50 23 67 57 67 34 0
49 -17 57 -67 9 -57 17 -63 92 -63 77 0 91 9 91 60 0 39 -14 60 -40 60 -9 0
-24 17 -34 40 -17 39 -71 90 -94 90 -9 0 -12 89 -12 337 l0 336 59 -56 c85
-82 92 -80 218 46 84 84 103 109 103 132 0 26 -74 104 -552 582 -521 522 -555
553 -588 553 -33 0 -67 -31 -588 -553z m1081 -95 l487 -488 -38 -37 -37 -37
-435 435 c-408 408 -437 435 -470 435 -33 0 -62 -27 -470 -435 l-435 -435 -37
37 -38 37 487 488 c268 269 490 488 493 488 3 0 225 -219 493 -488z m-1253
-1282 l0 -130 -132 0 -133 1 36 33 c25 23 49 35 82 40 54 8 64 18 73 75 6 36
53 111 70 111 2 0 4 -58 4 -130z"/>
</g>
</svg>
