<?xml version="1.0" standalone="no"?>
<!DOCTYPE svg PUBLIC "-//W3C//DTD SVG 20010904//EN"
 "http://www.w3.org/TR/2001/REC-SVG-20010904/DTD/svg10.dtd">
<svg version="1.0" xmlns="http://www.w3.org/2000/svg"
 width="512.000000pt" height="512.000000pt" viewBox="0 0 512.000000 512.000000"
 preserveAspectRatio="xMidYMid meet">
<metadata>
Created by potrace 1.16, written by Peter Selinger 2001-2019
</metadata>
<g transform="translate(0.000000,512.000000) scale(0.100000,-0.100000)"
fill="#000000" stroke="none">
<path d="M259 4861 l-259 -259 0 -108 0 -108 76 74 c97 94 542 540 609 609
l49 51 -108 0 -108 0 -259 -259z"/>
<path d="M709 4411 l-709 -708 0 -109 0 -108 76 74 c102 100 1445 1443 1509
1509 l49 51 -108 0 -109 0 -708 -709z"/>
<path d="M2072 4875 c-136 -135 -252 -245 -260 -245 -53 0 -160 -99 -180 -167
-9 -32 -155 -182 -822 -850 l-810 -810 0 -109 0 -108 76 74 c42 41 414 412
827 824 l750 749 21 -24 c12 -13 53 -53 91 -88 39 -36 94 -87 124 -115 l54
-50 -12 -67 -12 -67 -671 -670 c-642 -643 -672 -671 -719 -682 -67 -16 -131
-68 -163 -132 -14 -28 -26 -61 -26 -73 0 -13 -60 -81 -170 -193 l-170 -172 0
-107 0 -107 76 74 c42 41 116 114 165 162 49 49 91 88 94 88 3 0 5 -150 5
-333 l0 -332 -170 -173 -170 -172 0 -107 0 -107 76 74 c42 41 116 114 165 163
49 48 91 87 94 87 3 0 5 -115 5 -255 l0 -255 -72 0 c-119 0 -212 -58 -253
-157 -20 -48 -21 -240 -1 -288 13 -29 13 -35 0 -46 -9 -7 -14 -30 -14 -60 l0
-49 58 0 c32 0 63 5 68 10 8 8 19 8 38 0 19 -7 785 -10 2397 -10 2011 0 2375
2 2403 14 49 20 116 85 137 131 24 51 27 244 5 296 -13 30 -12 36 0 50 11 13
14 40 12 120 l-3 104 -69 -68 c-50 -48 -74 -66 -85 -61 -9 4 -53 9 -98 12
l-83 4 0 229 0 229 170 172 170 173 0 103 c0 56 -2 102 -5 102 -3 0 -74 -68
-158 -151 -84 -83 -158 -155 -164 -161 -10 -8 -13 58 -13 326 l0 336 170 172
170 173 0 103 c0 56 -2 102 -5 102 -3 0 -83 -76 -178 -170 -94 -93 -174 -170
-177 -170 -3 1 -17 17 -31 38 -14 20 -50 51 -80 67 -53 29 -57 30 -233 35
l-180 5 442 444 442 444 0 103 c0 57 -3 104 -6 104 -4 0 -254 -247 -557 -550
l-551 -550 -293 0 -293 0 0 45 0 44 850 851 850 852 0 104 c0 57 -3 104 -6
104 -4 0 -385 -378 -847 -840 -462 -462 -842 -840 -844 -840 -2 0 -3 49 -3
108 0 130 -16 192 -65 249 -35 41 -108 83 -144 83 -14 0 304 325 944 966 l965
966 0 59 0 59 -51 0 -52 0 -1020 -1020 c-944 -943 -1023 -1020 -1054 -1020
l-33 0 0 123 0 123 68 0 c154 0 272 112 272 259 0 33 -32 205 -65 351 -4 16
23 46 130 143 73 67 144 138 156 158 12 20 189 204 393 408 204 205 393 396
421 424 l49 51 -108 0 -108 0 -316 -315 c-251 -251 -318 -312 -325 -299 -21
37 -71 84 -111 104 -40 19 -107 30 -318 55 l-57 6 172 173 c95 96 194 197 222
225 l49 51 -107 0 -107 0 -165 -162 -164 -163 -52 109 c-56 117 -98 167 -163
197 -34 16 -67 19 -199 19 l-158 0 -247 -245z m548 42 c18 -19 128 -238 130
-258 0 -8 -622 -629 -631 -629 -4 0 -10 8 -13 18 -3 9 -45 53 -93 96 -154 138
-213 198 -213 217 0 11 17 37 38 58 l38 39 184 22 c183 21 220 31 252 67 10
11 54 96 98 189 44 93 89 177 101 187 30 25 82 22 109 -6z m290 -417 c25 -4
115 -16 200 -25 88 -10 165 -24 178 -32 27 -17 45 -59 38 -89 -3 -12 -71 -81
-151 -154 -80 -73 -154 -148 -164 -168 -11 -21 -82 -100 -159 -177 -207 -207
-184 -190 -223 -170 -60 32 -107 18 -292 -85 -186 -103 -216 -110 -254 -65
-27 31 -28 57 -7 160 l16 77 371 373 c244 244 377 372 387 369 8 -3 35 -9 60
-14z m139 -810 c20 -100 21 -112 7 -139 -9 -17 -29 -34 -48 -40 -30 -11 -40
-8 -113 30 -44 23 -82 43 -83 45 -5 3 200 212 209 213 3 1 16 -48 28 -109z
m-1122 -259 c55 -73 166 -121 247 -105 l36 6 0 -59 0 -60 -65 -65 -66 -65 -92
-5 c-195 -11 -287 -108 -287 -304 l0 -72 -112 -111 -112 -111 -333 0 c-320 0
-334 1 -321 18 7 10 247 252 533 537 l520 520 16 -49 c9 -26 25 -60 36 -75z
m778 7 l25 -11 0 -174 0 -173 -170 0 -170 0 0 45 c0 46 1 47 140 185 77 77
142 140 145 140 2 0 16 -5 30 -12z m85 -542 c0 -10 -231 -232 -263 -253 -50
-32 -307 -287 -307 -305 0 -12 -211 -231 -314 -327 l-26 -24 0 335 0 336 118
121 117 120 338 0 c185 1 337 -1 337 -3z m422 -24 c22 -22 23 -30 26 -225 l3
-202 -295 -296 -296 -296 0 338 0 338 183 186 182 185 87 -3 c76 -2 91 -5 110
-25z m-742 -870 l0 -327 -66 -68 -66 -67 -79 0 c-71 0 -83 -3 -104 -25 -31
-31 -34 -91 -6 -122 19 -20 19 -21 -99 -139 -65 -66 -130 -130 -144 -143 l-26
-24 0 336 0 337 235 232 c235 232 344 338 351 338 2 0 4 -147 4 -328z m-1180
294 c0 -2 -54 -57 -121 -124 -106 -105 -128 -123 -182 -142 -85 -30 -174 -120
-202 -203 -17 -49 -35 -73 -127 -166 -59 -60 -115 -114 -123 -121 -13 -11 -15
25 -15 323 l0 336 48 50 47 50 338 1 c185 0 337 -2 337 -4z m410 -245 l0 -248
-132 -132 c-122 -122 -148 -146 -133 -121 3 5 10 43 14 83 16 144 -19 249
-110 331 -28 25 -54 46 -58 46 -3 0 -12 4 -20 9 -10 7 19 42 120 144 l134 136
93 0 92 1 0 -249z m1540 -169 l0 -339 -472 -471 -471 -472 -209 0 -208 0 0
130 0 130 250 250 250 250 271 0 c275 0 298 3 326 39 22 28 16 89 -12 116 -23
24 -28 25 -170 25 l-145 0 0 45 0 45 293 294 c160 162 293 295 295 295 1 1 2
-151 2 -337z m572 235 c-18 -22 -385 -387 -389 -387 -1 0 -3 90 -3 200 l0 200
201 0 c166 0 200 -2 191 -13z m747 -2 c33 -16 41 -33 41 -79 0 -29 -16 -49
-127 -160 -70 -69 -129 -126 -132 -126 -3 0 -17 20 -30 45 -68 128 -229 197
-379 162 -74 -17 -76 -20 41 95 l77 78 241 0 c191 0 246 -3 268 -15z m-3368
-268 c58 -39 79 -81 79 -156 -1 -156 -80 -279 -366 -571 -73 -74 -135 -146
-139 -160 -3 -14 -2 -37 4 -52 9 -24 2 -33 -104 -140 -63 -63 -121 -121 -130
-128 -13 -11 -15 23 -15 324 l0 336 160 160 c122 122 166 160 186 160 32 0 74
42 74 75 0 18 21 46 73 99 62 65 77 75 108 75 22 1 49 -8 70 -22z m2900 -83
c58 -30 100 -119 81 -173 -14 -40 -111 -131 -140 -131 -35 0 -89 -26 -101 -48
-6 -12 -11 -36 -11 -55 0 -29 -10 -45 -65 -99 -55 -56 -68 -64 -93 -60 -17 2
-40 -1 -52 -8 -25 -14 -53 -74 -45 -99 3 -12 -30 -52 -116 -139 -67 -67 -123
-122 -125 -122 -2 0 -4 151 -4 335 l0 335 130 130 c71 71 132 130 136 130 3 0
3 -8 -1 -17 -4 -10 -11 -42 -15 -72 -16 -96 28 -151 107 -136 41 7 58 33 73
108 24 120 136 176 241 121z m509 -327 l0 -334 -252 -251 -252 -252 -338 0
-338 0 152 153 153 154 22 -27 c59 -72 202 -128 296 -116 173 23 290 140 313
313 9 70 -17 165 -65 234 l-38 56 30 39 c16 21 37 58 47 80 11 26 65 88 139
163 66 66 123 121 126 121 3 0 5 -150 5 -333z m-3052 -686 l-152 -151 -338 0
-338 0 125 125 125 125 260 0 261 0 24 26 c35 38 34 87 -4 125 l-29 29 -166 0
-166 0 273 273 272 273 3 -337 2 -336 -152 -152z m1670 -128 l-21 -23 -339 0
-338 0 357 358 358 357 3 -334 c2 -332 2 -335 -20 -358z m906 602 c68 -68 68
-162 1 -230 -68 -67 -162 -67 -230 1 -35 34 -35 36 -18 58 27 34 197 204 205
205 4 1 23 -15 42 -34z m476 -490 l0 -135 -140 0 -140 0 135 135 c74 74 137
135 140 135 3 0 5 -61 5 -135z m-3503 -435 l-121 -120 -338 0 -339 0 118 119
118 119 341 1 342 1 -121 -120z m900 0 l-121 -120 -338 0 -339 0 118 119 118
119 341 1 342 1 -121 -120z m900 0 l-121 -120 -338 0 -339 0 118 119 118 119
341 1 342 1 -121 -120z m900 0 l-121 -120 -338 0 -339 0 118 119 118 119 341
1 342 1 -121 -120z m900 0 l-121 -120 -338 0 -339 0 118 119 118 119 341 1
342 1 -121 -120z"/>
</g>
</svg>
