<?xml version="1.0" standalone="no"?>
<!DOCTYPE svg PUBLIC "-//W3C//DTD SVG 20010904//EN"
 "http://www.w3.org/TR/2001/REC-SVG-20010904/DTD/svg10.dtd">
<svg version="1.0" xmlns="http://www.w3.org/2000/svg"
 width="512.000000pt" height="238.000000pt" viewBox="0 0 512.000000 238.000000"
 preserveAspectRatio="xMidYMid meet">
<metadata>
Created by potrace 1.16, written by Peter Selinger 2001-2019
</metadata>
<g transform="translate(0.000000,238.000000) scale(0.100000,-0.100000)"
fill="#000000" stroke="none">
<path d="M930 2361 c-219 -51 -418 -161 -579 -322 -81 -82 -178 -213 -225
-307 -147 -291 -166 -661 -51 -965 120 -320 382 -582 702 -702 37 -15 105 -35
151 -46 80 -18 134 -19 1637 -19 1503 0 1557 1 1637 19 389 92 712 374 853
748 53 139 65 218 65 421 0 203 -14 292 -64 425 -86 224 -248 431 -444 565
-103 70 -163 102 -271 141 -176 64 -79 61 -1785 60 -1433 -1 -1557 -2 -1626
-18z m3254 -189 c96 -27 242 -95 325 -152 79 -53 197 -171 251 -250 58 -85
126 -231 152 -325 19 -68 22 -105 22 -255 0 -150 -3 -187 -22 -255 -26 -94
-94 -240 -152 -325 -53 -78 -172 -197 -250 -250 -88 -60 -233 -127 -330 -152
l-85 -23 -1530 0 -1530 0 -85 23 c-97 25 -242 92 -330 152 -78 53 -197 172
-250 250 -58 85 -126 231 -152 325 -19 68 -22 105 -22 255 0 204 14 273 88
427 60 124 113 200 201 288 89 89 167 143 290 201 79 37 131 54 270 87 11 3
704 4 1540 3 l1520 -1 79 -23z"/>
<path d="M1070 2041 c-133 -19 -303 -96 -413 -186 -130 -108 -222 -243 -280
-415 -28 -80 -29 -94 -29 -250 0 -156 1 -170 29 -250 53 -157 107 -244 218
-355 111 -111 198 -165 355 -218 80 -28 94 -29 250 -29 156 0 170 1 250 29
288 98 482 294 576 583 25 78 27 98 27 240 0 141 -3 162 -28 240 -93 290 -297
494 -582 584 -91 28 -272 41 -373 27z m339 -215 c212 -73 360 -224 432 -441
33 -99 34 -288 1 -390 -70 -215 -232 -377 -447 -447 -93 -30 -288 -32 -380 -4
-222 68 -393 239 -461 461 -28 92 -26 287 4 380 69 213 236 381 442 444 91 28
111 30 230 26 79 -3 123 -10 179 -29z"/>
</g>
</svg>
