<?xml version="1.0" standalone="no"?>
<!DOCTYPE svg PUBLIC "-//W3C//DTD SVG 20010904//EN"
 "http://www.w3.org/TR/2001/REC-SVG-20010904/DTD/svg10.dtd">
<svg version="1.0" xmlns="http://www.w3.org/2000/svg"
 width="512.000000pt" height="239.000000pt" viewBox="0 0 512.000000 239.000000"
 preserveAspectRatio="xMidYMid meet">
<metadata>
Created by potrace 1.16, written by Peter Selinger 2001-2019
</metadata>
<g transform="translate(0.000000,239.000000) scale(0.100000,-0.100000)"
fill="#000000" stroke="none">
<path d="M1040 2383 c-14 -2 -59 -11 -100 -20 -387 -82 -723 -373 -865 -750
-74 -194 -95 -437 -56 -641 48 -248 157 -455 332 -631 126 -126 274 -220 438
-280 176 -64 80 -61 1776 -61 1366 0 1552 2 1619 16 389 80 728 372 872 751
50 133 64 222 64 425 0 203 -12 282 -65 421 -120 320 -382 582 -702 702 -37
15 -104 36 -148 48 -80 21 -81 21 -1610 23 -841 1 -1541 0 -1555 -3z m3144
-392 c274 -94 458 -280 552 -561 26 -79 28 -96 28 -240 0 -144 -2 -161 -28
-240 -94 -281 -289 -476 -566 -566 -78 -25 -98 -27 -240 -27 -142 0 -162 2
-240 27 -276 90 -476 290 -566 566 -25 78 -27 98 -27 240 0 142 2 162 27 240
87 268 278 465 537 556 102 36 164 43 309 39 106 -4 138 -9 214 -34z"/>
</g>
</svg>
